<svg width="28" height="28" viewBox="0 0 28 28" fill="none" xmlns="http://www.w3.org/2000/svg">
<path d="M8.7487 3.48914C5.20483 3.48914 2.33203 6.36147 2.33203 9.90582C2.33203 13.6205 4.44778 17.1252 7.94661 20.3335C9.14081 21.4278 10.4266 22.388 11.7018 23.2502C12.1487 23.5512 12.5667 23.8242 12.9415 24.0517C13.1699 24.1905 13.3205 24.2908 13.4154 24.3433C13.7677 24.5393 14.2297 24.5393 14.582 24.3433C14.6769 24.2908 14.8275 24.1905 15.0559 24.0517C15.4307 23.8242 15.8487 23.5512 16.2956 23.2502C17.5708 22.388 18.8566 21.4278 20.0508 20.3335C23.5496 17.1252 25.6654 13.6205 25.6654 9.90582C25.6654 6.36147 22.7926 3.48914 19.2487 3.48914C17.236 3.48914 15.2708 4.58582 14.0351 6.18649C12.8302 4.55782 10.8719 3.48914 8.7487 3.48914Z" fill="#5B25EB"/>
</svg>
