<svg width="66" height="18" viewBox="0 0 66 18" fill="none" xmlns="http://www.w3.org/2000/svg">
<path d="M12.8134 0.406738C13.2846 0.406756 13.7414 0.551597 14.0836 0.848324C14.4296 1.14835 14.6439 1.59162 14.6439 2.15394V15.4575H10.983V2.15394C10.983 1.59161 11.1973 1.14835 11.5433 0.848324C11.8855 0.55162 12.3423 0.406738 12.8134 0.406738ZM7.96734 0.818908C8.56181 0.762874 9.15656 1.14342 9.47284 1.86156C9.75968 2.51295 9.78015 3.19333 9.75459 3.61869C9.66384 5.12791 9.4182 7.50898 8.31891 9.76757C7.18418 12.0988 5.25036 14.079 2.11509 15.0117C1.68289 15.1402 0.252351 14.9988 0.0553067 13.8769C-0.101059 12.9862 0.0553059 12.5902 0.767301 11.8975C0.925998 11.7431 5.1759 9.8259 5.85298 7.7411C6.52995 5.65634 6.33005 5.48181 6.45475 4.48308C4.32022 4.65966 2.30255 4.36413 1.45555 4.17723C0.59033 3.98618 0.0356344 3.09163 0.21656 2.1791C0.397655 1.26656 1.24591 0.681264 2.1112 0.872069C2.8403 1.03295 5.04639 1.29109 7.35812 0.869588C7.54146 0.826002 7.74793 0.802473 7.96734 0.818908Z" fill="#BBBBBB"/>
<path d="M28.7941 12.847C29.7551 12.847 30.3658 12.9885 30.7252 13.4069C30.9041 13.6153 31.0131 13.8839 31.0779 14.2153C31.1424 14.5461 31.1643 14.9464 31.1643 15.4235V18H27.7883V15.7187C27.7883 15.5954 27.765 15.5389 27.7376 15.5107C27.7111 15.4833 27.6587 15.4596 27.5409 15.4596H18.8325C18.3859 15.4596 18.0253 15.3354 17.7757 15.1024C17.5252 14.8686 17.3986 14.5363 17.3986 14.1451C17.3986 13.7539 17.5253 13.4252 17.7764 13.1953C18.0263 12.9666 18.3868 12.847 18.8325 12.847H28.7941ZM27.8712 15.5518C27.8776 15.5747 27.8823 15.6 27.8854 15.6276C27.8823 15.6 27.8776 15.5747 27.8712 15.5518ZM18.6067 15.3459C18.6109 15.3463 18.615 15.3465 18.6191 15.3469C18.615 15.3465 18.6109 15.3463 18.6067 15.3459ZM18.4671 15.3253C18.4748 15.3268 18.4827 15.3278 18.4905 15.3292C18.4827 15.3278 18.4748 15.3268 18.4671 15.3253ZM18.3452 15.297C18.3492 15.2981 18.3532 15.2991 18.3572 15.3001C18.3532 15.2991 18.3492 15.2981 18.3452 15.297ZM18.2073 15.2516C18.2192 15.2562 18.2313 15.2607 18.2435 15.2651C18.2313 15.2607 18.2192 15.2562 18.2073 15.2516ZM18.1577 15.231C18.1708 15.2368 18.184 15.2423 18.1974 15.2477C18.184 15.2423 18.1708 15.2368 18.1577 15.231ZM18.0999 15.2038C18.111 15.2093 18.1222 15.2148 18.1336 15.2201C18.1222 15.2148 18.111 15.2093 18.0999 15.2038ZM18.0443 15.174C18.0568 15.1811 18.0694 15.1881 18.0822 15.1949C18.0694 15.1882 18.0568 15.1811 18.0443 15.174ZM17.9961 15.1449C18.0074 15.1522 18.0188 15.1593 18.0305 15.1662C18.0188 15.1593 18.0074 15.1522 17.9961 15.1449ZM17.8061 14.9897C17.8321 15.0167 17.8596 15.0423 17.8887 15.0666C17.8596 15.0423 17.8321 15.0167 17.8061 14.9897ZM17.698 14.8557C17.7035 14.8637 17.7091 14.8716 17.7147 14.8795C17.7091 14.8716 17.7035 14.8637 17.698 14.8557ZM17.6406 14.7604C17.6449 14.7685 17.6493 14.7765 17.6537 14.7845C17.6493 14.7765 17.6449 14.7685 17.6406 14.7604ZM17.6162 14.7115C17.621 14.7219 17.6262 14.7321 17.6314 14.7423C17.6262 14.7321 17.621 14.7219 17.6162 14.7115ZM17.5942 14.6615C17.5971 14.6687 17.6004 14.6757 17.6034 14.6828C17.6004 14.6757 17.5971 14.6687 17.5942 14.6615ZM17.5286 14.4421C17.5301 14.4491 17.5314 14.4561 17.5329 14.463C17.5314 14.4561 17.5301 14.4491 17.5286 14.4421ZM30.4917 9.8643C30.9403 9.86434 31.2786 9.99826 31.5046 10.2339C31.7296 10.4688 31.8303 10.7917 31.8303 11.1462C31.8302 11.5094 31.7256 11.8328 31.4982 12.0655C31.2702 12.2987 30.9318 12.4277 30.4917 12.4277H18.1187C17.6785 12.4277 17.3398 12.2987 17.1119 12.0655C16.8844 11.8328 16.7798 11.5094 16.7798 11.1462C16.7798 10.7917 16.8804 10.4688 17.1055 10.2339C17.3314 9.99822 17.67 9.86431 18.1187 9.8643H30.4917ZM17.8947 12.3132C17.9043 12.3144 17.9141 12.3151 17.9238 12.3161C17.9141 12.3151 17.9043 12.3144 17.8947 12.3132ZM17.7601 12.2916C17.7695 12.2936 17.7791 12.2951 17.7888 12.2969C17.7791 12.2951 17.7695 12.2936 17.7601 12.2916ZM30.8216 12.2969C30.831 12.2952 30.8404 12.2935 30.8496 12.2916C30.8404 12.2935 30.831 12.2952 30.8216 12.2969ZM17.6339 12.2594C17.6711 12.2708 17.7097 12.2809 17.7498 12.2895C17.7097 12.2809 17.6711 12.2708 17.6339 12.2594ZM30.8606 12.2895C30.88 12.2853 30.899 12.2808 30.9177 12.276C30.899 12.2808 30.88 12.2853 30.8606 12.2895ZM17.5783 12.2409C17.593 12.2462 17.608 12.2513 17.6233 12.2562C17.608 12.2513 17.593 12.2462 17.5783 12.2409ZM30.9924 12.2544C31.0043 12.2506 31.016 12.2465 31.0275 12.2424C31.016 12.2464 31.0043 12.2506 30.9924 12.2544ZM17.529 12.2218C17.5392 12.226 17.5494 12.2303 17.5598 12.2342C17.5494 12.2303 17.5392 12.226 17.529 12.2218ZM31.0566 12.2317C31.0635 12.2291 31.0703 12.2263 31.0771 12.2236C31.0703 12.2263 31.0635 12.2291 31.0566 12.2317ZM17.4702 12.1959C17.4806 12.2009 17.491 12.2058 17.5017 12.2105C17.491 12.2058 17.4806 12.2009 17.4702 12.1959ZM31.1083 12.2105C31.1199 12.2054 31.1311 12.1999 31.1424 12.1945C31.1311 12.1999 31.1199 12.2054 31.1083 12.2105ZM17.4198 12.1701C17.4292 12.1751 17.4386 12.1804 17.4482 12.1853C17.4386 12.1804 17.4292 12.1751 17.4198 12.1701ZM31.1618 12.1853C31.1714 12.1805 31.1806 12.1751 31.1898 12.1701C31.1805 12.1751 31.1714 12.1805 31.1618 12.1853ZM17.3716 12.1424C17.3812 12.1483 17.3908 12.1542 17.4007 12.1598C17.3908 12.1542 17.3812 12.1483 17.3716 12.1424ZM31.2097 12.1594C31.2174 12.155 31.2249 12.1505 31.2324 12.146C31.2249 12.1505 31.2174 12.155 31.2097 12.1594ZM31.2611 12.1282C31.2687 12.1233 31.276 12.1181 31.2834 12.113C31.276 12.1181 31.2687 12.1233 31.2611 12.1282ZM17.3022 12.0963C17.3042 12.0978 17.3065 12.0991 17.3086 12.1006C17.2941 12.0901 17.2801 12.0794 17.2664 12.0683L17.3022 12.0963ZM31.3011 12.1006C31.3142 12.0911 31.327 12.0815 31.3394 12.0715C31.327 12.0815 31.3142 12.0911 31.3011 12.1006ZM31.3461 12.0662C31.3532 12.0605 31.3599 12.0544 31.3667 12.0485C31.3599 12.0544 31.3532 12.0605 31.3461 12.0662ZM31.4936 11.9159C31.4779 11.936 31.4613 11.9553 31.444 11.9741C31.4613 11.9553 31.4779 11.936 31.4936 11.9159ZM17.1172 11.9174C17.1252 11.9275 17.1336 11.9373 17.142 11.9471C17.1322 11.9356 17.1225 11.924 17.1133 11.912L17.1172 11.9174ZM17.0548 11.8277C17.0582 11.8331 17.062 11.8383 17.0654 11.8436C17.062 11.8383 17.0582 11.8331 17.0548 11.8277ZM17.0041 11.7348C17.0073 11.7414 17.0107 11.7478 17.014 11.7543C17.0107 11.7478 17.0073 11.7414 17.0041 11.7348ZM31.5995 11.748C31.6009 11.7453 31.6021 11.7425 31.6034 11.7398C31.6021 11.7425 31.6009 11.7453 31.5995 11.748ZM16.9623 11.6363C16.9646 11.6425 16.967 11.6486 16.9694 11.6547C16.967 11.6486 16.9646 11.6425 16.9623 11.6363ZM31.6406 11.6547C31.6425 11.6501 31.6442 11.6453 31.646 11.6406C31.6442 11.6453 31.6425 11.65 31.6406 11.6547ZM16.9035 11.4102C16.9076 11.4344 16.9124 11.4583 16.9176 11.4818C16.9124 11.4583 16.9076 11.4344 16.9035 11.4102ZM31.6945 11.4715C31.6984 11.4535 31.7019 11.4354 31.7051 11.4169C31.7019 11.4354 31.6984 11.4535 31.6945 11.4715ZM16.8886 11.2961C16.8908 11.3203 16.8938 11.3441 16.8971 11.3677C16.8938 11.3441 16.8908 11.3203 16.8886 11.2961ZM31.7144 11.3563C31.7166 11.3391 31.7187 11.3218 31.7204 11.3042C31.7187 11.3218 31.7166 11.3391 31.7144 11.3563ZM16.8826 11.21C16.883 11.2215 16.8844 11.233 16.885 11.2443C16.8832 11.2121 16.8815 11.1794 16.8815 11.1462L16.8826 11.21ZM31.7289 11.1462C31.7289 11.176 31.7268 11.2054 31.7253 11.2344C31.7258 11.2263 31.7272 11.2181 31.7275 11.21L31.7289 11.1462ZM31.7211 10.9945C31.7184 10.9648 31.7155 10.9355 31.7112 10.9066C31.7155 10.9355 31.7184 10.9648 31.7211 10.9945ZM31.7009 10.852C31.6971 10.8324 31.6938 10.8128 31.6892 10.7935C31.6938 10.8128 31.6971 10.8324 31.7009 10.852ZM31.6761 10.7475C31.67 10.7259 31.6644 10.7043 31.6573 10.6833C31.6644 10.7043 31.67 10.7259 31.6761 10.7475ZM31.6233 10.5954C31.6221 10.5927 31.6209 10.59 31.6197 10.5873C31.6209 10.59 31.6221 10.5927 31.6233 10.5954ZM17.047 10.4774C17.0314 10.5035 17.0171 10.5306 17.0038 10.5582C17.0171 10.5306 17.0314 10.5035 17.047 10.4774ZM31.5758 10.5001C31.5733 10.4957 31.5709 10.4913 31.5683 10.487C31.5709 10.4913 31.5733 10.4957 31.5758 10.5001ZM31.5545 10.4643C31.5498 10.4566 31.5453 10.4488 31.5403 10.4413C31.5453 10.4488 31.5498 10.4566 31.5545 10.4643ZM31.5233 10.4168C31.5186 10.4101 31.5141 10.4032 31.5092 10.3966C31.5141 10.4032 31.5186 10.4101 31.5233 10.4168ZM31.4925 10.375C31.4874 10.3685 31.4822 10.3622 31.4769 10.3559C31.4822 10.3622 31.4874 10.3685 31.4925 10.375ZM31.4592 10.3349C31.4519 10.3267 31.4444 10.3185 31.4369 10.3105C31.4444 10.3185 31.4519 10.3267 31.4592 10.3349ZM17.2178 10.2655H17.2182H17.2178ZM31.4238 10.2967C31.4171 10.2899 31.4104 10.2831 31.4036 10.2765C31.4104 10.2831 31.4171 10.2899 31.4238 10.2967ZM31.3823 10.2566C31.3757 10.2506 31.3689 10.2447 31.3621 10.2389C31.3689 10.2447 31.3757 10.2506 31.3823 10.2566ZM31.3405 10.2212C31.3329 10.2151 31.3252 10.209 31.3174 10.2031C31.3252 10.209 31.3329 10.2151 31.3405 10.2212ZM31.3004 10.1907C31.2899 10.1831 31.2791 10.1757 31.2682 10.1684C31.2791 10.1756 31.2899 10.1831 31.3004 10.1907ZM17.4521 10.1046C17.4166 10.1223 17.3828 10.1416 17.3507 10.1624C17.3828 10.1416 17.4166 10.1223 17.4521 10.1046ZM31.2522 10.1581C31.2437 10.1527 31.2351 10.1474 31.2263 10.1422C31.2351 10.1474 31.2437 10.1527 31.2522 10.1581ZM31.2015 10.1276C31.192 10.1223 31.1822 10.1175 31.1725 10.1124C31.1822 10.1174 31.192 10.1223 31.2015 10.1276ZM31.1498 10.1007C31.1413 10.0965 31.1326 10.0926 31.1239 10.0886C31.1326 10.0926 31.1413 10.0965 31.1498 10.1007ZM31.0956 10.0759C31.0846 10.0712 31.0735 10.0668 31.0623 10.0624C31.0735 10.0668 31.0846 10.0712 31.0956 10.0759ZM31.0424 10.0546C31.0299 10.05 31.0171 10.0458 31.0041 10.0415C31.0171 10.0458 31.0299 10.05 31.0424 10.0546ZM30.979 10.0333C30.9711 10.0309 30.9632 10.0286 30.9552 10.0263C30.9632 10.0286 30.9711 10.0309 30.979 10.0333ZM30.7422 9.98232C30.7937 9.9892 30.8431 9.99812 30.8904 10.0093C30.8431 9.99812 30.7937 9.98921 30.7422 9.98232ZM30.5703 9.96743C30.6092 9.96891 30.647 9.97195 30.6838 9.97558C30.647 9.97195 30.6092 9.96891 30.5703 9.96743ZM27.9162 3.02147C28.8784 2.68723 29.8019 2.49171 30.2982 3.13984C30.7942 3.78802 30.6754 5.03433 29.7134 5.36868C28.2948 5.86154 26.533 6.02467 24.9931 6.06367C23.992 6.08902 22.989 6.06339 22.076 6.01299L21.9335 6.23733L21.9034 6.28446C21.8955 6.30647 21.885 6.34066 21.8758 6.38547C21.859 6.46702 21.8516 6.55506 21.8552 6.63745C23.68 6.76566 26.0886 6.74909 28.4524 5.99633C29.4312 5.68462 30.4708 5.74958 30.9336 6.40886C31.3963 7.06818 30.959 8.12644 29.9803 8.43818C26.3894 9.58175 23.0008 9.40817 20.8278 9.21574C19.8463 9.12882 19.1048 8.76953 18.6365 8.31059C18.2099 7.8925 18.0418 7.43012 17.9755 7.06947C17.907 6.69645 17.9287 6.33056 17.9918 6.02327C18.0309 5.83325 18.1002 5.59638 18.2247 5.36585C17.8093 5.06626 17.6057 4.64129 17.7324 4.20836C17.9419 3.49288 18.9728 3.02714 20.035 3.16819C20.3252 3.20674 20.6904 3.24814 21.1095 3.28656C22.1844 3.38506 23.5426 3.45741 24.8457 3.42442C26.197 3.3902 27.2673 3.24689 27.9162 3.02147ZM26.6584 0.168513C27.6816 -0.0697485 28.5675 -0.142544 28.9213 0.546662C29.275 1.23589 28.9627 2.42656 27.9396 2.66494C26.29 3.04908 24.5015 3.13628 23.0439 3.09447C22.3048 3.07327 21.6117 3.01756 21.0181 2.93924C20.4718 2.86717 19.8558 2.75634 19.3659 2.57704C18.4146 2.22888 18.0623 1.42707 18.5791 0.786239C19.096 0.145502 20.2862 -0.0916609 21.2375 0.256405C21.1965 0.241407 21.343 0.290932 21.7716 0.347487C22.1534 0.397866 22.6492 0.43947 23.2108 0.45558C24.3546 0.488386 25.6168 0.411098 26.6584 0.168513Z" fill="#BBBBBB"/>
<path d="M46.6538 0.406738C47.125 0.406761 47.5818 0.551602 47.924 0.848326C48.27 1.14835 48.4843 1.59164 48.4843 2.15395V15.4576H44.8233V2.15395C44.8234 1.59162 45.0377 1.14835 45.3836 0.848326C45.7258 0.551628 46.1827 0.406738 46.6538 0.406738ZM41.8077 0.81891C42.4022 0.762862 42.9969 1.14342 43.3132 1.86157C43.6 2.51296 43.6205 3.19334 43.595 3.6187C43.5042 5.12794 43.2586 7.50901 42.1593 9.76761C41.0245 12.0989 39.0907 14.079 35.9554 15.0117C35.5232 15.1403 34.0927 14.9988 33.8956 13.8769C33.7393 12.9863 33.8956 12.5903 34.6076 11.8976C34.7663 11.7432 39.0162 9.82594 39.6933 7.74113C40.3703 5.65636 40.1704 5.48183 40.2951 4.48309C38.1606 4.65968 36.1429 4.36415 35.2959 4.17724C34.4307 3.98619 33.876 3.09163 34.0569 2.17911C34.238 1.26657 35.0863 0.681282 35.9515 0.872071C36.6806 1.03296 38.8867 1.29109 41.1985 0.86959C41.3818 0.826004 41.5883 0.802475 41.8077 0.81891Z" fill="#5B25EB"/>
<path d="M62.6344 12.847C63.5954 12.847 64.2062 12.9885 64.5656 13.4069C64.7444 13.6153 64.8535 13.8839 64.9182 14.2153C64.9828 14.5461 65.0047 14.9464 65.0047 15.4235V18H61.6286V15.7187C61.6286 15.5954 61.6053 15.5389 61.5779 15.5107C61.5514 15.4833 61.499 15.4596 61.3812 15.4596H52.6728C52.2262 15.4596 51.8657 15.3355 51.616 15.1024C51.3656 14.8686 51.2389 14.5363 51.2389 14.1451C51.2389 13.7539 51.3656 13.4252 51.6167 13.1953C51.8666 12.9666 52.2272 12.847 52.6728 12.847H62.6344ZM64.8927 14.9234C64.8998 15.0789 64.9029 15.2453 64.9029 15.4235C64.9029 15.2453 64.8998 15.0789 64.8927 14.9234ZM52.4471 15.3459C52.4512 15.3463 52.4553 15.3465 52.4595 15.3469C52.4553 15.3465 52.4512 15.3463 52.4471 15.3459ZM52.3074 15.3253C52.3152 15.3268 52.323 15.3278 52.3308 15.3292C52.323 15.3278 52.3152 15.3268 52.3074 15.3253ZM52.1855 15.297C52.1895 15.2981 52.1935 15.2991 52.1976 15.3001C52.1935 15.2991 52.1895 15.2981 52.1855 15.297ZM52.0477 15.2516C52.0596 15.2562 52.0716 15.2607 52.0838 15.2651C52.0716 15.2607 52.0596 15.2562 52.0477 15.2516ZM51.998 15.231C52.0111 15.2368 52.0243 15.2423 52.0377 15.2477C52.0243 15.2423 52.0111 15.2368 51.998 15.231ZM51.9438 15.2055C51.9537 15.2105 51.9638 15.2153 51.9739 15.2201C51.9638 15.2153 51.9537 15.2105 51.9438 15.2055ZM51.891 15.1775C51.9002 15.1827 51.9096 15.1878 51.919 15.1928C51.9096 15.1878 51.9002 15.1827 51.891 15.1775ZM51.8364 15.1449C51.8475 15.152 51.8587 15.1591 51.8701 15.1658C51.8587 15.1591 51.8475 15.152 51.8364 15.1449ZM51.6465 14.9897C51.6724 15.0167 51.6999 15.0423 51.729 15.0666C51.6999 15.0423 51.6724 15.0167 51.6465 14.9897ZM51.5384 14.8557C51.5438 14.8637 51.5494 14.8716 51.555 14.8795C51.5494 14.8716 51.5438 14.8637 51.5384 14.8557ZM51.5093 14.8104C51.5156 14.8208 51.5222 14.831 51.5288 14.8412C51.5222 14.831 51.5156 14.8208 51.5093 14.8104ZM51.4803 14.7593C51.4862 14.7706 51.4924 14.7817 51.4987 14.7926C51.4924 14.7817 51.4862 14.7706 51.4803 14.7593ZM51.4565 14.7115C51.4614 14.7219 51.4666 14.7321 51.4717 14.7423C51.4666 14.7321 51.4614 14.7219 51.4565 14.7115ZM51.4345 14.6615C51.4375 14.6687 51.4407 14.6757 51.4438 14.6828C51.4407 14.6757 51.4375 14.6687 51.4345 14.6615ZM51.369 14.4421C51.3704 14.4491 51.3717 14.4561 51.3732 14.463C51.3717 14.4561 51.3704 14.4491 51.369 14.4421ZM52.3698 12.9699H52.3695H52.3698ZM64.332 9.8643C64.7806 9.86434 65.119 9.99826 65.3449 10.2339C65.57 10.4688 65.6709 10.7917 65.6709 11.1462C65.6709 11.5094 65.566 11.8328 65.3385 12.0655C65.1106 12.2987 64.7722 12.4277 64.332 12.4277H51.9591C51.5188 12.4277 51.1802 12.2988 50.9522 12.0655C50.7247 11.8328 50.6201 11.5094 50.6201 11.1462C50.6201 10.7917 50.7208 10.4688 50.9458 10.2339C51.1718 9.99822 51.5104 9.86431 51.9591 9.8643H64.332ZM51.7351 12.3132C51.7447 12.3144 51.7544 12.3151 51.7641 12.3161C51.7544 12.3151 51.7447 12.3144 51.7351 12.3132ZM51.6004 12.2916C51.6099 12.2936 51.6195 12.2951 51.6291 12.2969C51.6195 12.2951 51.6099 12.2936 51.6004 12.2916ZM64.662 12.2969C64.6714 12.2952 64.6807 12.2935 64.69 12.2916C64.6807 12.2935 64.6714 12.2952 64.662 12.2969ZM51.4764 12.2601C51.5129 12.2712 51.5508 12.2811 51.5901 12.2895C51.5508 12.2811 51.5129 12.2712 51.4764 12.2601ZM64.7009 12.2895C64.7203 12.2853 64.7393 12.2808 64.758 12.276C64.7393 12.2808 64.7203 12.2854 64.7009 12.2895ZM51.4186 12.2409C51.4326 12.2459 51.4467 12.2509 51.4611 12.2555C51.4467 12.2509 51.4326 12.2459 51.4186 12.2409ZM64.8328 12.2544C64.8446 12.2506 64.8563 12.2465 64.8679 12.2424C64.8563 12.2465 64.8446 12.2506 64.8328 12.2544ZM51.3693 12.2218C51.3795 12.226 51.3897 12.2303 51.4002 12.2342C51.3897 12.2303 51.3795 12.226 51.3693 12.2218ZM64.8969 12.2317C64.9038 12.2291 64.9107 12.2263 64.9175 12.2236C64.9107 12.2263 64.9038 12.2291 64.8969 12.2317ZM51.3105 12.1959C51.3209 12.2009 51.3314 12.2058 51.342 12.2105C51.3314 12.2058 51.3209 12.2009 51.3105 12.1959ZM64.9487 12.2105C64.9602 12.2054 64.9715 12.1999 64.9827 12.1945C64.9715 12.1999 64.9602 12.2054 64.9487 12.2105ZM51.2534 12.1665C51.2662 12.1736 51.2792 12.1804 51.2924 12.1871C51.2792 12.1804 51.2662 12.1736 51.2534 12.1665ZM65.0022 12.1853C65.0117 12.1805 65.0209 12.1751 65.0302 12.1701C65.0209 12.1751 65.0117 12.1805 65.0022 12.1853ZM51.2098 12.141C51.2214 12.1481 51.233 12.1552 51.2449 12.1619C51.233 12.1552 51.2214 12.1481 51.2098 12.141ZM65.05 12.1594C65.0577 12.155 65.0652 12.1505 65.0727 12.146C65.0652 12.1505 65.0577 12.155 65.05 12.1594ZM65.1014 12.1282C65.109 12.1233 65.1163 12.1181 65.1237 12.113C65.1163 12.1181 65.109 12.1233 65.1014 12.1282ZM51.1425 12.0963C51.1446 12.0978 51.1468 12.0991 51.1489 12.1006C51.1345 12.0901 51.1204 12.0794 51.1067 12.0683L51.1425 12.0963ZM65.1415 12.1006C65.1545 12.0911 65.1673 12.0815 65.1797 12.0715C65.1673 12.0815 65.1545 12.0911 65.1415 12.1006ZM65.1865 12.0662C65.1935 12.0605 65.2002 12.0544 65.207 12.0485C65.2002 12.0544 65.1935 12.0605 65.1865 12.0662ZM65.3339 11.9159C65.3126 11.9431 65.2901 11.9694 65.2659 11.9943C65.2901 11.9694 65.3126 11.9431 65.3339 11.9159ZM50.9575 11.9174C50.9655 11.9275 50.9739 11.9373 50.9823 11.9471C50.9725 11.9356 50.9629 11.924 50.9536 11.912L50.9575 11.9174ZM50.8951 11.8277C50.8985 11.8331 50.9023 11.8383 50.9058 11.8436C50.9023 11.8383 50.8985 11.8331 50.8951 11.8277ZM50.8445 11.7348C50.8476 11.7414 50.8511 11.7478 50.8544 11.7543C50.8511 11.7478 50.8476 11.7414 50.8445 11.7348ZM65.4399 11.748C65.4412 11.7453 65.4424 11.7425 65.4438 11.7398C65.4424 11.7425 65.4412 11.7453 65.4399 11.748ZM50.8026 11.6363C50.8049 11.6425 50.8073 11.6486 50.8097 11.6547C50.8073 11.6486 50.8049 11.6425 50.8026 11.6363ZM65.481 11.6547C65.4828 11.6501 65.4845 11.6453 65.4863 11.6406C65.4845 11.6453 65.4828 11.6501 65.481 11.6547ZM50.7438 11.4102C50.7479 11.4344 50.7527 11.4583 50.758 11.4818C50.7527 11.4583 50.7479 11.4344 50.7438 11.4102ZM65.5348 11.4715C65.5387 11.4535 65.5423 11.4354 65.5455 11.4169C65.5423 11.4354 65.5387 11.4535 65.5348 11.4715ZM50.7289 11.2961C50.7311 11.3203 50.7342 11.3441 50.7374 11.3677C50.7342 11.3441 50.7311 11.3203 50.7289 11.2961ZM65.5547 11.3563C65.5569 11.3391 65.559 11.3218 65.5607 11.3042C65.559 11.3218 65.5569 11.3391 65.5547 11.3563ZM50.7399 10.9023C50.7278 10.9806 50.7218 11.0621 50.7218 11.1462L50.7229 11.21C50.7233 11.2215 50.7247 11.233 50.7254 11.2443C50.7235 11.2121 50.7218 11.1794 50.7218 11.1462C50.7218 11.0621 50.7278 10.9806 50.7399 10.9023ZM65.5692 11.1462C65.5692 11.176 65.5672 11.2054 65.5657 11.2344C65.5661 11.2263 65.5675 11.2181 65.5678 11.21L65.5692 11.1462ZM65.5614 10.9945C65.5587 10.9648 65.5559 10.9355 65.5515 10.9066C65.5559 10.9355 65.5587 10.9648 65.5614 10.9945ZM65.5412 10.852C65.5374 10.8324 65.5341 10.8128 65.5295 10.7935C65.5341 10.8128 65.5374 10.8324 65.5412 10.852ZM50.7945 10.6784H50.7948H50.7945ZM65.5164 10.7475C65.5104 10.7259 65.5048 10.7043 65.4976 10.6833C65.5048 10.7043 65.5104 10.7259 65.5164 10.7475ZM65.4636 10.5954C65.4624 10.5927 65.4613 10.59 65.4601 10.5873C65.4613 10.59 65.4624 10.5927 65.4636 10.5954ZM50.8873 10.4774C50.8717 10.5035 50.8574 10.5306 50.8441 10.5582C50.8574 10.5306 50.8717 10.5035 50.8873 10.4774ZM65.4161 10.5001C65.4137 10.4957 65.4112 10.4913 65.4087 10.487C65.4112 10.4913 65.4137 10.4957 65.4161 10.5001ZM65.3949 10.4643C65.3901 10.4566 65.3856 10.4488 65.3807 10.4413C65.3856 10.4488 65.3901 10.4566 65.3949 10.4643ZM65.3637 10.4168C65.3589 10.4101 65.3544 10.4032 65.3495 10.3966C65.3544 10.4032 65.3589 10.4101 65.3637 10.4168ZM65.3328 10.375C65.3278 10.3685 65.3225 10.3622 65.3172 10.3559C65.3225 10.3622 65.3278 10.3685 65.3328 10.375ZM65.2981 10.3332C65.2929 10.3272 65.2876 10.3213 65.2822 10.3155C65.2876 10.3213 65.2929 10.3272 65.2981 10.3332ZM51.0582 10.2655H51.0585H51.0582ZM65.2591 10.2917C65.2548 10.2873 65.2505 10.2829 65.246 10.2786C65.2505 10.2829 65.2548 10.2873 65.2591 10.2917ZM65.2226 10.2566C65.216 10.2506 65.2092 10.2447 65.2024 10.2389C65.2093 10.2447 65.216 10.2506 65.2226 10.2566ZM65.1808 10.2212C65.1732 10.2151 65.1656 10.209 65.1578 10.2031C65.1656 10.209 65.1732 10.2151 65.1808 10.2212ZM65.1408 10.1907C65.1302 10.1831 65.1195 10.1757 65.1085 10.1684C65.1195 10.1756 65.1302 10.1831 65.1408 10.1907ZM51.2924 10.1046C51.2569 10.1223 51.2231 10.1416 51.1911 10.1624C51.2231 10.1416 51.2569 10.1223 51.2924 10.1046ZM65.0926 10.1581C65.084 10.1527 65.0754 10.1474 65.0667 10.1422C65.0754 10.1474 65.084 10.1527 65.0926 10.1581ZM65.0419 10.1276C65.0316 10.1219 65.021 10.1164 65.0103 10.111C65.021 10.1164 65.0316 10.1219 65.0419 10.1276ZM64.9937 10.1025C64.9824 10.0969 64.9709 10.0914 64.9593 10.0862C64.9709 10.0914 64.9824 10.0969 64.9937 10.1025ZM64.9363 10.0759C64.9252 10.0712 64.9139 10.0668 64.9026 10.0624C64.9139 10.0668 64.9252 10.0712 64.9363 10.0759ZM64.8827 10.0546C64.8702 10.05 64.8574 10.0458 64.8445 10.0415C64.8574 10.0458 64.8702 10.05 64.8827 10.0546ZM64.8193 10.0334C64.8115 10.0309 64.8035 10.0286 64.7956 10.0263C64.8035 10.0286 64.8115 10.0309 64.8193 10.0334ZM64.584 9.98232C64.6369 9.98944 64.6876 9.99906 64.736 10.0107C64.6876 9.99905 64.6369 9.98944 64.584 9.98232ZM64.4107 9.96743C64.4495 9.96891 64.4873 9.97195 64.5241 9.97558C64.4873 9.97195 64.4495 9.96891 64.4107 9.96743ZM61.7565 3.02147C62.7187 2.68724 63.6422 2.49171 64.1385 3.13984C64.6346 3.78802 64.5157 5.03432 63.5537 5.36868C62.1351 5.86154 60.3733 6.02467 58.8334 6.06367C57.8324 6.08902 56.8293 6.06339 55.9163 6.01299L55.7739 6.23733L55.7437 6.28446C55.7359 6.30647 55.7253 6.34066 55.7161 6.38547C55.6993 6.46702 55.6919 6.55506 55.6955 6.63745C57.5203 6.76566 59.929 6.7491 62.2928 5.99633C63.2715 5.68462 64.3112 5.74957 64.7739 6.40886C65.2367 7.06818 64.7993 8.12644 63.8206 8.43818C60.2297 9.58175 56.8411 9.40817 54.6681 9.21574C53.6867 9.12882 52.9451 8.76952 52.4768 8.31059C52.0503 7.89251 51.8821 7.43012 51.8159 7.06947C51.7474 6.69645 51.769 6.33056 51.8322 6.02327C51.8713 5.83325 51.9405 5.59638 52.065 5.36585C51.6496 5.06626 51.446 4.64129 51.5728 4.20837C51.7823 3.49288 52.8132 3.02713 53.8753 3.16819C54.1655 3.20674 54.5307 3.24814 54.9499 3.28656C56.0247 3.38506 57.383 3.45741 58.686 3.42442C60.0374 3.3902 61.1077 3.24689 61.7565 3.02147ZM60.4988 0.168514C61.522 -0.0697446 62.4079 -0.14255 62.7616 0.546663C63.1153 1.23593 62.8028 2.42664 61.7796 2.66494C60.1301 3.04905 58.3418 3.13628 56.8842 3.09447C56.1451 3.07327 55.4521 3.01756 54.8584 2.93924C54.3122 2.86717 53.6961 2.75634 53.2062 2.57704C52.2549 2.22888 51.9026 1.42708 52.4194 0.78624C52.9363 0.145506 54.1265 -0.0916693 55.0778 0.256406C55.0368 0.241383 55.1832 0.290922 55.6119 0.347488C55.9938 0.397868 56.4896 0.439472 57.0511 0.455581C58.195 0.488388 59.4571 0.411099 60.4988 0.168514Z" fill="#5B25EB"/>
</svg>
